<svg width="16" height="16" viewBox="0 0 16 16" fill="none" xmlns="http://www.w3.org/2000/svg">
<g clip-path="url(#clip0_51_921)">
<mask id="path-1-inside-1_51_921" fill="white">
<path d="M2 2V15.5C1.99994 15.5868 2.02248 15.6722 2.06542 15.7476C2.10836 15.8231 2.17022 15.8861 2.24489 15.9304C2.31957 15.9747 2.40449 15.9988 2.4913 16.0003C2.57812 16.0018 2.66383 15.9807 2.74 15.939L8 13.069L13.26 15.939C13.3362 15.9807 13.4219 16.0018 13.5087 16.0003C13.5955 15.9988 13.6804 15.9747 13.7551 15.9304C13.8298 15.8861 13.8916 15.8231 13.9346 15.7476C13.9775 15.6722 14.0001 15.5868 14 15.5V2C14 1.46957 13.7893 0.960859 13.4142 0.585786C13.0391 0.210714 12.5304 0 12 0H4C3.46957 0 2.96086 0.210714 2.58579 0.585786C2.21071 0.960859 2 1.46957 2 2Z"/>
</mask>
<path d="M2 2H1H2ZM2 15.5L3 15.5007V15.5H2ZM2.4913 16.0003L2.50869 15.0004L2.4913 16.0003ZM2.74 15.939L2.26103 15.0612L2.26 15.0617L2.74 15.939ZM8 13.069L8.47897 12.1912L8 11.9298L7.52103 12.1912L8 13.069ZM13.26 15.939L13.74 15.0617L13.739 15.0612L13.26 15.939ZM13.5087 16.0003L13.4913 15.0004L13.5087 16.0003ZM14 15.5H13L13 15.5007L14 15.5ZM1 2V15.5H3V2H1ZM1 15.4993C0.99981 15.7597 1.06745 16.0158 1.19627 16.2422L2.93458 15.2531C2.97752 15.3286 3.00006 15.4139 3 15.5007L1 15.4993ZM1.19627 16.2422C1.3251 16.4686 1.51066 16.6575 1.73468 16.7904L2.75511 15.0703C2.82978 15.1146 2.89163 15.1776 2.93458 15.2531L1.19627 16.2422ZM1.73468 16.7904C1.9587 16.9233 2.21347 16.9956 2.47392 17.0001L2.50869 15.0004C2.59551 15.002 2.68044 15.026 2.75511 15.0703L1.73468 16.7904ZM2.47392 17.0001C2.73435 17.0047 2.99148 16.9413 3.22 16.8163L2.26 15.0617C2.33618 15.0201 2.42189 14.9989 2.50869 15.0004L2.47392 17.0001ZM3.21897 16.8168L8.47897 13.9468L7.52103 12.1912L2.26103 15.0612L3.21897 16.8168ZM7.52103 13.9468L12.781 16.8168L13.739 15.0612L8.47897 12.1912L7.52103 13.9468ZM12.78 16.8163C13.0085 16.9413 13.2656 17.0047 13.5261 17.0001L13.4913 15.0004C13.5781 14.9989 13.6638 15.0201 13.74 15.0617L12.78 16.8163ZM13.5261 17.0001C13.7865 16.9956 14.0413 16.9233 14.2653 16.7904L13.2449 15.0703C13.3196 15.026 13.4045 15.002 13.4913 15.0004L13.5261 17.0001ZM14.2653 16.7904C14.4894 16.6575 14.6749 16.4686 14.8037 16.2422L13.0654 15.2531C13.1084 15.1776 13.1702 15.1146 13.2449 15.0703L14.2653 16.7904ZM14.8037 16.2422C14.9325 16.0158 15.0002 15.7597 15 15.4993L13 15.5007C12.9999 15.4139 13.0225 15.3286 13.0654 15.2531L14.8037 16.2422ZM15 15.5V2H13V15.5H15ZM15 2C15 1.20435 14.6839 0.441289 14.1213 -0.12132L12.7071 1.29289C12.8946 1.48043 13 1.73478 13 2H15ZM14.1213 -0.12132C13.5587 -0.68393 12.7956 -1 12 -1V1C12.2652 1 12.5196 1.10536 12.7071 1.29289L14.1213 -0.12132ZM12 -1H4V1H12V-1ZM4 -1C3.20435 -1 2.44129 -0.68393 1.87868 -0.12132L3.29289 1.29289C3.48043 1.10536 3.73478 1 4 1V-1ZM1.87868 -0.12132C1.31607 0.441289 1 1.20435 1 2H3C3 1.73478 3.10536 1.48043 3.29289 1.29289L1.87868 -0.12132Z" fill="black" mask="url(#path-1-inside-1_51_921)"/>
</g>
<defs>
<clipPath id="clip0_51_921">
<rect width="16" height="16" fill="white"/>
</clipPath>
</defs>
</svg>
