<svg width="24" height="24" viewBox="0 0 24 24" fill="none" xmlns="http://www.w3.org/2000/svg">
<path fill-rule="evenodd" clip-rule="evenodd" d="M10.8529 4.13103C11.2879 3.12803 12.7119 3.12803 13.1469 4.13103L15.1269 8.69703L20.0809 9.16903C21.1689 9.27203 21.6089 10.626 20.7889 11.35L17.0589 14.644L18.1409 19.501C18.3789 20.569 17.2269 21.405 16.2849 20.849L11.9999 18.32L7.71489 20.85C6.77289 21.406 5.62089 20.57 5.85889 19.502L6.94089 14.645L3.21089 11.351C2.39089 10.627 2.83089 9.27303 3.91989 9.17003L8.87289 8.69803L10.8529 4.13203V4.13103ZM11.9999 6.51403L10.4729 10.034L10.2389 10.576L9.65089 10.632L5.83089 10.996L8.70689 13.536L9.14989 13.926L9.02189 14.502L8.18689 18.248L11.4919 16.297L11.9999 15.997L12.5079 16.297L15.8129 18.247L14.9779 14.502L14.8499 13.926L15.2929 13.536L18.1689 10.996L14.3489 10.632L13.7609 10.576L13.5269 10.034L11.9999 6.51403Z" fill="black"/>
</svg>
