<svg width="24" height="21" viewBox="0 0 24 21" fill="none" xmlns="http://www.w3.org/2000/svg">
<path fill-rule="evenodd" clip-rule="evenodd" d="M11.3101 0.775933C11.4961 0.598652 11.7432 0.499756 12.0001 0.499756C12.2571 0.499756 12.5042 0.598652 12.6901 0.775933L20.6901 8.39456L23.1901 10.7744C23.3824 10.9574 23.4941 11.2093 23.5007 11.4747C23.5073 11.74 23.4081 11.9971 23.2251 12.1894C23.0421 12.3816 22.7903 12.4933 22.5249 12.4999C22.2595 12.5065 22.0024 12.4074 21.8101 12.2244L21.0001 11.4514V18.999C21.0001 19.5294 20.7894 20.0381 20.4144 20.4132C20.0393 20.7882 19.5306 20.9989 19.0001 20.9989H5.00014C4.46971 20.9989 3.961 20.7882 3.58592 20.4132C3.21085 20.0381 3.00014 19.5294 3.00014 18.999V11.4514L2.19014 12.2234C1.99812 12.4064 1.74127 12.5056 1.4761 12.4992C1.21092 12.4928 0.959138 12.3814 0.776138 12.1894C0.593139 11.9974 0.493913 11.7405 0.500289 11.4754C0.506666 11.2102 0.618122 10.9584 0.810138 10.7754L3.31014 8.39456L11.3101 0.774933V0.775933ZM5.00014 9.5475V18.999H9.00014V13.9993C9.00014 13.2037 9.31621 12.4406 9.87882 11.8781C10.4414 11.3155 11.2045 10.9994 12.0001 10.9994C12.7958 10.9994 13.5589 11.3155 14.1215 11.8781C14.6841 12.4406 15.0001 13.2037 15.0001 13.9993V18.999H19.0001V9.5475L12.0001 2.87983L5.00014 9.5465V9.5475ZM13.0001 18.999V13.9993C13.0001 13.7341 12.8948 13.4797 12.7072 13.2922C12.5197 13.1047 12.2654 12.9993 12.0001 12.9993C11.7349 12.9993 11.4806 13.1047 11.293 13.2922C11.1055 13.4797 11.0001 13.7341 11.0001 13.9993V18.999H13.0001Z" fill="black"/>
</svg>
