<svg width="41" height="41" viewBox="0 0 41 41" fill="none" xmlns="http://www.w3.org/2000/svg">
<path fill-rule="evenodd" clip-rule="evenodd" d="M18.5406 7.05747C19.2837 5.34393 21.7164 5.34393 22.4595 7.05747L25.842 14.8581L34.3051 15.6645C36.1638 15.8404 36.9154 18.1536 35.5146 19.3905L29.1425 25.0181L30.9909 33.3158C31.3975 35.1404 29.4295 36.5687 27.8203 35.6188L20.5001 31.2982L13.1799 35.6205C11.5706 36.5704 9.60261 35.1421 10.0092 33.3176L11.8576 25.0198L5.48553 19.3922C4.0847 18.1553 4.83636 15.8422 6.69674 15.6662L15.1581 14.8598L18.5406 7.05918V7.05747ZM20.5001 11.1286L17.8914 17.1423L17.4917 18.0682L16.4872 18.1639L9.96136 18.7858L14.8745 23.1251L15.6313 23.7914L15.4127 24.7755L13.9862 31.1752L19.6322 27.8421L20.5001 27.3295L21.3679 27.8421L27.0139 31.1735L25.5875 24.7755L25.3688 23.7914L26.1256 23.1251L31.0388 18.7858L24.5129 18.1639L23.5084 18.0682L23.1087 17.1423L20.5001 11.1286Z" fill="black"/>
</svg>
